# cell-puzzle multi-object OBJ
# 9 objects
o part_0_fam1_j3
v 1 2 0
v 2 2 0
v 2 3 0
v 1 3 0
v 1 2 1
v 1 3 1
v 2 3 1
v 2 2 1
v 3 2 0
v 3 3 0
v 3 3 1
v 3 2 1
v 1.0 1.0 0.0
v 2.0 1.0 0.0
v 2.0 2.0 2.0
v 2.0 3.0 2.0
f 1 2 3
f 1 3 4
f 5 6 7
f 5 7 8
f 1 5 8
f 1 8 2
f 4 3 7
f 4 7 6
f 1 4 6
f 1 6 5
f 2 8 7
f 2 7 3
f 2 9 10
f 2 10 3
f 8 7 11
f 8 11 12
f 2 8 12
f 2 12 9
f 3 10 11
f 3 11 7
f 2 3 7
f 2 7 8
f 9 12 11
f 9 11 10
f 5 1 13
f 8 2 14
f 2 1 13
f 2 14 13
f 8 14 13
f 8 5 13
f 8 2 1
f 8 5 1
f 15 12 8
f 16 11 7
f 11 7 8
f 11 12 8
f 16 7 8
f 16 15 8
f 16 11 12
f 16 15 12
o part_1_fam4_j3
v 2 1 2
v 3 1 2
v 3 2 2
v 2 2 2
v 2 1 3
v 2 2 3
v 3 2 3
v 3 1 3
v 3 3 2
v 2 3 2
v 2 3 3
v 3 3 3
v 2.0 0.0 3.0
v 3.0 0.0 3.0
v 3.0 2.0 1.0
v 3.0 3.0 1.0
f 17 18 19
f 17 19 20
f 21 22 23
f 21 23 24
f 17 21 24
f 17 24 18
f 20 19 23
f 20 23 22
f 17 20 22
f 17 22 21
f 18 24 23
f 18 23 19
f 20 19 25
f 20 25 26
f 22 27 28
f 22 28 23
f 20 22 23
f 20 23 19
f 26 25 28
f 26 28 27
f 20 26 27
f 20 27 22
f 19 23 28
f 19 28 25
f 21 17 29
f 24 18 30
f 18 17 29
f 18 30 29
f 24 30 29
f 24 21 29
f 24 18 17
f 24 21 17
f 19 31 20
f 25 32 26
f 32 26 20
f 32 31 20
f 25 26 20
f 25 19 20
f 25 32 31
f 25 19 31
o part_2_fam7_j1
v 0 0 0
v 1 0 0
v 1 1 0
v 0 1 0
v 0 0 1
v 0 1 1
v 1 1 1
v 1 0 1
v 0 0 2
v 0 1 2
v 1 1 2
v 1 0 2
v 2.0 0.0 0.0
v 2.0 1.0 0.0
v 0.0 2.0 2.0
v 1.0 2.0 2.0
f 33 34 35
f 33 35 36
f 37 38 39
f 37 39 40
f 33 37 40
f 33 40 34
f 36 35 39
f 36 39 38
f 33 36 38
f 33 38 37
f 34 40 39
f 34 39 35
f 37 40 39
f 37 39 38
f 41 42 43
f 41 43 44
f 37 41 44
f 37 44 40
f 38 39 43
f 38 43 42
f 37 38 42
f 37 42 41
f 40 44 43
f 40 43 39
f 40 45 34
f 46 39 35
f 39 40 34
f 39 35 34
f 46 35 34
f 46 45 34
f 46 39 40
f 46 40 45
f 42 47 38
f 48 43 39
f 43 42 38
f 43 39 38
f 48 39 38
f 48 47 38
f 48 43 42
f 48 42 47
o part_3_fam8_j3
v 2 0 1
v 3 0 1
v 3 1 1
v 2 1 1
v 2 0 2
v 2 1 2
v 3 1 2
v 3 0 2
v 2 0 0
v 3 0 0
v 3 1 0
v 2 1 0
v 2.0 0.0 3.0
v 3.0 0.0 3.0
v 2.0 2.0 0.0
v 3.0 2.0 0.0
f 49 50 51
f 49 51 52
f 53 54 55
f 53 55 56
f 49 53 56
f 49 56 50
f 52 51 55
f 52 55 54
f 49 52 54
f 49 54 53
f 50 56 55
f 50 55 51
f 57 58 59
f 57 59 60
f 49 52 51
f 49 51 50
f 57 49 50
f 57 50 58
f 60 59 51
f 60 51 52
f 57 60 52
f 57 52 49
f 58 50 51
f 58 51 59
f 61 54 53
f 55 62 56
f 62 61 53
f 62 56 53
f 55 56 53
f 55 54 53
f 55 62 61
f 55 61 54
f 52 63 60
f 64 51 59
f 51 52 60
f 51 59 60
f 64 59 60
f 64 63 60
f 64 51 52
f 64 52 63
o part_4_fam9_j0
v 2 1 1
v 3 1 1
v 3 2 1
v 2 2 1
v 2 1 2
v 2 2 2
v 3 2 2
v 3 1 2
v 1 1 1
v 1 2 1
v 1 1 2
v 1 2 2
v 2.0 2.0 0.0
v 3.0 2.0 0.0
v 1.0 1.0 0.0
v 2.0 1.0 0.0
f 65 66 67
f 65 67 68
f 69 70 71
f 69 71 72
f 65 69 72
f 65 72 66
f 68 67 71
f 68 71 70
f 65 68 70
f 65 70 69
f 66 72 71
f 66 71 67
f 73 65 68
f 73 68 74
f 75 76 70
f 75 70 69
f 73 75 69
f 73 69 65
f 74 68 70
f 74 70 76
f 73 74 76
f 73 76 75
f 65 69 70
f 65 70 68
f 68 77 65
f 67 78 66
f 78 77 65
f 78 66 65
f 67 66 65
f 67 68 65
f 67 78 77
f 67 68 77
f 73 74 79
f 68 65 80
f 65 73 79
f 65 80 79
f 68 80 79
f 68 74 79
f 68 65 73
f 68 73 74
o part_5_fam10_j0
v 0 2 0
v 1 2 0
v 1 3 0
v 0 3 0
v 0 2 1
v 0 3 1
v 1 3 1
v 1 2 1
v 0 1 0
v 1 1 0
v 0 1 1
v 1 1 1
v 1.0 2.0 2.0
v 1.0 3.0 2.0
v 0.0 2.0 2.0
f 81 82 83
f 81 83 84
f 85 86 87
f 85 87 88
f 81 85 88
f 81 88 82
f 84 83 87
f 84 87 86
f 81 84 86
f 81 86 85
f 82 88 87
f 82 87 83
f 89 90 82
f 89 82 81
f 91 85 88
f 91 88 92
f 89 91 92
f 89 92 90
f 81 82 88
f 81 88 85
f 89 81 85
f 89 85 91
f 90 92 88
f 90 88 82
f 93 88 85
f 94 87 86
f 87 86 85
f 87 88 85
f 94 86 85
f 94 93 85
f 94 87 88
f 94 93 88
f 95 85 91
f 93 88 92
f 88 85 91
f 88 92 91
f 93 92 91
f 93 95 91
f 93 88 85
f 93 95 85
o part_6_fam11_j0
v 0 1 2
v 1 1 2
v 1 2 2
v 0 2 2
v 0 1 3
v 0 2 3
v 1 2 3
v 1 1 3
v 1 3 2
v 0 3 2
v 0 3 3
v 1 3 3
v 0.0 0.0 2.0
v 0.0 0.0 3.0
v 0.0 2.0 1.0
v 0.0 3.0 1.0
f 96 97 98
f 96 98 99
f 100 101 102
f 100 102 103
f 96 100 103
f 96 103 97
f 99 98 102
f 99 102 101
f 96 99 101
f 96 101 100
f 97 103 102
f 97 102 98
f 99 98 104
f 99 104 105
f 101 106 107
f 101 107 102
f 99 101 102
f 99 102 98
f 105 104 107
f 105 107 106
f 99 105 106
f 99 106 101
f 98 102 107
f 98 107 104
f 96 97 108
f 103 100 109
f 100 109 108
f 100 96 108
f 103 109 108
f 103 97 108
f 103 100 96
f 103 96 97
f 99 98 110
f 104 105 111
f 105 99 110
f 105 111 110
f 104 111 110
f 104 98 110
f 104 105 99
f 104 99 98
o part_7_fam11_j3
v 1 0 1
v 2 0 1
v 2 1 1
v 1 1 1
v 1 0 2
v 1 1 2
v 2 1 2
v 2 0 2
v 1 0 3
v 1 1 3
v 2 1 3
v 2 0 3
v 2.0 0.0 0.0
v 2.0 1.0 0.0
v 0.0 0.0 2.0
v 0.0 0.0 3.0
f 112 113 114
f 112 114 115
f 116 117 118
f 116 118 119
f 112 116 119
f 112 119 113
f 115 114 118
f 115 118 117
f 112 115 117
f 112 117 116
f 113 119 118
f 113 118 114
f 116 119 118
f 116 118 117
f 120 121 122
f 120 122 123
f 116 120 123
f 116 123 119
f 117 118 122
f 117 122 121
f 116 117 121
f 116 121 120
f 119 123 122
f 119 122 118
f 113 124 112
f 114 125 115
f 125 115 112
f 125 124 112
f 114 115 112
f 114 113 112
f 114 125 124
f 114 113 124
f 117 116 126
f 121 120 127
f 120 127 126
f 120 116 126
f 121 127 126
f 121 117 126
f 121 120 116
f 121 117 116
o void_tromino
v 1 1 2
v 2 1 2
v 2 2 2
v 1 2 2
v 1 1 3
v 1 2 3
v 2 2 3
v 2 1 3
v 1 2 1
v 2 2 1
v 2 3 1
v 1 3 1
v 1 3 2
v 2 3 2
v 1 3 3
v 2 3 3
f 128 129 130
f 128 130 131
f 132 133 134
f 132 134 135
f 128 132 135
f 128 135 129
f 131 130 134
f 131 134 133
f 128 131 133
f 128 133 132
f 129 135 134
f 129 134 130
f 136 137 138
f 136 138 139
f 131 140 141
f 131 141 130
f 136 131 130
f 136 130 137
f 139 138 141
f 139 141 140
f 136 139 140
f 136 140 131
f 137 130 141
f 137 141 138
f 131 130 141
f 131 141 140
f 133 142 143
f 133 143 134
f 131 133 134
f 131 134 130
f 140 141 143
f 140 143 142
f 131 140 142
f 131 142 133
f 130 134 143
f 130 143 141
