<svg xmlns="http://www.w3.org/2000/svg" viewBox="0 0 320 180" width="320" height="180"><rect width="320" height="180" fill="#0a1018"/><polygon points="100.0,50.0 117.4,60.0 100.0,70.0 82.6,60.0" fill="#e74c3c" stroke="#3d4f63" stroke-width="1.1"/><polygon points="82.6,60.0 100.0,70.0 100.0,90.0 82.6,80.0" fill="#2a3340" stroke="#3d4f63" stroke-width="1.1"/><polygon points="100.0,70.0 117.4,60.0 117.4,80.0 100.0,90.0" fill="#1e2630" stroke="#3d4f63" stroke-width="1.1"/><polygon points="220.0,50.0 237.4,60.0 220.0,70.0 202.6,60.0" fill="#3498db" stroke="#3d4f63" stroke-width="1.1"/><polygon points="202.6,60.0 220.0,70.0 220.0,90.0 202.6,80.0" fill="#2a3340" stroke="#3d4f63" stroke-width="1.1"/><polygon points="220.0,70.0 237.4,60.0 237.4,80.0 220.0,90.0" fill="#1e2630" stroke="#3d4f63" stroke-width="1.1"/><polygon points="100.0,110.0 117.4,120.0 100.0,130.0 82.6,120.0" fill="#2ecc71" stroke="#3d4f63" stroke-width="1.1"/><polygon points="82.6,120.0 100.0,130.0 100.0,150.0 82.6,140.0" fill="#2a3340" stroke="#3d4f63" stroke-width="1.1"/><polygon points="100.0,130.0 117.4,120.0 117.4,140.0 100.0,150.0" fill="#1e2630" stroke="#3d4f63" stroke-width="1.1"/><polygon points="220.0,110.0 237.4,120.0 220.0,130.0 202.6,120.0" fill="#f1c40f" stroke="#3d4f63" stroke-width="1.1"/><polygon points="202.6,120.0 220.0,130.0 220.0,150.0 202.6,140.0" fill="#2a3340" stroke="#3d4f63" stroke-width="1.1"/><polygon points="220.0,130.0 237.4,120.0 237.4,140.0 220.0,150.0" fill="#1e2630" stroke="#3d4f63" stroke-width="1.1"/><polygon points="160.0,80.0 177.4,90.0 160.0,100.0 142.6,90.0" fill="#9b59b6" stroke="#3d4f63" stroke-width="1.1"/><polygon points="142.6,90.0 160.0,100.0 160.0,120.0 142.6,110.0" fill="#2a3340" stroke="#3d4f63" stroke-width="1.1"/><polygon points="160.0,100.0 177.4,90.0 177.4,110.0 160.0,120.0" fill="#1e2630" stroke="#3d4f63" stroke-width="1.1"/></svg>
