<svg xmlns="http://www.w3.org/2000/svg" viewBox="0 0 320 180" width="320" height="180"><rect width="320" height="180" fill="#0a1018"/><rect x="92" y="28" width="30" height="28" rx="3" fill="#243040" stroke="#3d4f63" stroke-width="1"/><rect x="92" y="60" width="30" height="28" rx="3" fill="#6dca8e" stroke="#3d4f63" stroke-width="1"/><rect x="92" y="92" width="30" height="28" rx="3" fill="#f5a623" stroke="#3d4f63" stroke-width="1"/><rect x="92" y="124" width="30" height="28" rx="3" fill="#243040" stroke="#3d4f63" stroke-width="1"/><rect x="126" y="28" width="30" height="28" rx="3" fill="#7e57c2" stroke="#3d4f63" stroke-width="1"/><rect x="126" y="60" width="30" height="28" rx="3" fill="#ef5350" stroke="#3d4f63" stroke-width="1"/><rect x="126" y="92" width="30" height="28" rx="3" fill="#243040" stroke="#3d4f63" stroke-width="1"/><rect x="126" y="124" width="30" height="28" rx="3" fill="#7ab8e0" stroke="#3d4f63" stroke-width="1"/><rect x="160" y="28" width="30" height="28" rx="3" fill="#7ab8e0" stroke="#3d4f63" stroke-width="1"/><rect x="160" y="60" width="30" height="28" rx="3" fill="#243040" stroke="#3d4f63" stroke-width="1"/><rect x="160" y="92" width="30" height="28" rx="3" fill="#f5a623" stroke="#3d4f63" stroke-width="1"/><rect x="160" y="124" width="30" height="28" rx="3" fill="#7e57c2" stroke="#3d4f63" stroke-width="1"/><rect x="194" y="28" width="30" height="28" rx="3" fill="#243040" stroke="#3d4f63" stroke-width="1"/><rect x="194" y="60" width="30" height="28" rx="3" fill="#ef5350" stroke="#3d4f63" stroke-width="1"/><rect x="194" y="92" width="30" height="28" rx="3" fill="#26c6da" stroke="#3d4f63" stroke-width="1"/><rect x="194" y="124" width="30" height="28" rx="3" fill="#243040" stroke="#3d4f63" stroke-width="1"/></svg>
